<svg xmlns="http://www.w3.org/2000/svg" viewBox="0 0 400 400"><defs><filter id="glow"><feGaussianBlur stdDeviation="4" result="coloredBlur"/><feMerge><feMergeNode in="coloredBlur"/><feMergeNode in="SourceGraphic"/></feMerge></filter></defs><rect width="400" height="400" fill="#1a1a2e"/><circle cx="200" cy="200" r="160" fill="none" opacity="0" filter="url(#glow)"/><ellipse cx="200" cy="230" rx="100" ry="80" fill="#FFB6C1"/><ellipse cx="200" cy="230" rx="100" ry="80" fill="#FFB6C1" opacity="0.3"/><circle cx="200" cy="150" r="70" fill="#FFB6C1"/><polygon points="145,100 130,50 175,80" fill="#FFB6C1"/><polygon points="255,100 270,50 225,80" fill="#FFB6C1"/><polygon points="148,95 138,60 170,82" fill="#FFB6C1" opacity="0.5"/><polygon points="252,95 262,60 230,82" fill="#FFB6C1" opacity="0.5"/><ellipse cx="175" cy="145" rx="15" ry="18" fill="white"/><ellipse cx="225" cy="145" rx="15" ry="18" fill="white"/><circle cx="175" cy="145" r="8" fill="#FFB6C1"/><circle cx="225" cy="145" r="8" fill="#FFB6C1"/><circle cx="175" cy="145" r="4" fill="black"/><circle cx="225" cy="145" r="4" fill="black"/><circle cx="177" cy="143" r="2" fill="white"/><circle cx="227" cy="143" r="2" fill="white"/><ellipse cx="200" cy="165" rx="8" ry="5" fill="#ff9999"/><path d="M190,170 Q200,180 210,170" stroke="#333" stroke-width="2" fill="none"/><line x1="140" y1="160" x2="170" y2="165" stroke="#333" stroke-width="1.5"/><line x1="140" y1="170" x2="170" y2="170" stroke="#333" stroke-width="1.5"/><line x1="140" y1="180" x2="170" y2="175" stroke="#333" stroke-width="1.5"/><line x1="260" y1="160" x2="230" y2="165" stroke="#333" stroke-width="1.5"/><line x1="260" y1="170" x2="230" y2="170" stroke="#333" stroke-width="1.5"/><line x1="260" y1="180" x2="230" y2="175" stroke="#333" stroke-width="1.5"/><path d="M150,200 Q175,180 200,200 Q225,220 250,200" stroke="#333" stroke-width="3" fill="none" opacity="0.5"/><path d="M150,220 Q175,200 200,220 Q225,240 250,220" stroke="#333" stroke-width="3" fill="none" opacity="0.5"/><text x="200" y="340" text-anchor="middle" font-family="Arial" font-size="20" fill="#FFD700"> POWER: 1/100</text><text x="200" y="370" text-anchor="middle" font-family="Arial" font-size="14" fill="#888">#0 / 10000</text></svg>